<svg xmlns="http://www.w3.org/2000/svg" viewBox="0 0 21.01 43.49"><defs><style>.cls-1{fill:#fff;}.cls-2{fill:#fcf39a;}.cls-3{fill:#6aa5a9;}</style></defs><title>Asset 11</title><g id="Layer_2" data-name="Layer 2"><g id="Layer_1-2" data-name="Layer 1"><polygon class="cls-1" points="4.08 16.1 6.23 25.33 1.74 25.33 1.74 16.1 4.08 16.1"/><polygon class="cls-1" points="13.58 16.1 13.58 25.33 8.02 25.33 5.86 16.1 13.58 16.1"/><path class="cls-2" d="M14.45,10.41A4.82,4.82,0,0,1,15.32,20V15.23a.87.87,0,0,0-.87-.87H9.71A4.83,4.83,0,0,1,14.45,10.41Z"/><path class="cls-3" d="M10.46,39.6a.87.87,0,0,0,.65-1.05L8.43,27.07h5.15V41.75H1.74V27.07h4.9L9.42,38.94a.86.86,0,0,0,.85.68Z"/><path d="M4.08,16.1H1.74v9.23H6.23Zm9.5,9.23V16.1H5.86L8,25.33ZM11.11,38.55a.87.87,0,0,1-.65,1.05l-.19,0a.86.86,0,0,1-.85-.68L6.64,27.07H1.74V41.75H13.58V27.07H8.43ZM8,14.36a6.55,6.55,0,1,1,7.36,7.36v20.9a.87.87,0,0,1-.87.87H.87A.87.87,0,0,1,0,42.62V15.23a.87.87,0,0,1,.87-.87h2.8L.56,1.06A.87.87,0,0,1,2.26.67l3.2,13.69ZM15.32,20a4.82,4.82,0,1,0-5.61-5.61h4.74a.87.87,0,0,1,.87.87Z"/></g></g></svg>