<svg xmlns="http://www.w3.org/2000/svg" viewBox="0 0 7.71 60.31"><defs><style>.cls-1{fill:#fbbc85;}.cls-2{fill:#fff;}.cls-3{fill:#ffdc9d;}.cls-4{fill:#fdce9d;}.cls-5{fill:#231f20;}.cls-6{fill:#848c91;}</style></defs><title>Asset 2</title><g id="Layer_2" data-name="Layer 2"><g id="Layer_1-2" data-name="Layer 1"><path class="cls-1" d="M6.71,22.17V57.53c0,1-1.28,1.78-2.85,1.78S1,58.51,1,57.53V22.17"/><path class="cls-2" d="M6.71,22.17v24.6c0,.62-1.28,1.12-2.85,1.12S1,47.39,1,46.77V22.17"/><circle class="cls-3" cx="6.59" cy="51.77" r="0.51"/><circle class="cls-3" cx="1.11" cy="55.95" r="0.5"/><circle class="cls-4" cx="2.01" cy="50.93" r="0.68"/><circle class="cls-4" cx="2.15" cy="53.82" r="0.54"/><circle class="cls-4" cx="4.56" cy="52.37" r="0.54"/><circle class="cls-4" cx="5.06" cy="55.65" r="0.65"/><circle class="cls-4" cx="3.65" cy="58.14" r="0.76"/><circle class="cls-4" cx="4.4" cy="49.08" r="0.66"/><circle class="cls-3" cx="1.89" cy="48.6" r="0.26"/><path class="cls-5" d="M3.86,60.31C1.69,60.31,0,59.09,0,57.53V22.17a1,1,0,0,1,2,0V57.53c0,.23.65.78,1.86.78s1.85-.55,1.85-.78V22.17a1,1,0,0,1,2,0V57.53C7.71,59.09,6,60.31,3.86,60.31Z"/><ellipse class="cls-6" cx="3.86" cy="22.17" rx="2.86" ry="1.78"/><path class="cls-5" d="M3.86,25C1.69,25,0,23.73,0,22.17s1.69-2.78,3.86-2.78,3.85,1.22,3.85,2.78S6,25,3.86,25Zm0-3.56c-1.21,0-1.86.55-1.86.78s.65.78,1.86.78,1.85-.56,1.85-.78S5.06,21.39,3.86,21.39Z"/><path d="M5.14,18C3,15.78,4,13.39,4.84,11.48S5.91,8.74,5.14,8a.89.89,0,0,1,0-1.23.85.85,0,0,1,1.23,0c1.69,1.68.79,3.76.07,5.42-.86,2-1.34,3.3-.07,4.56a.87.87,0,0,1,0,1.23.85.85,0,0,1-.61.26A.89.89,0,0,1,5.14,18Z"/><path d="M1.67,11.47C-.5,9.3.54,6.91,1.36,5s1.08-2.74.31-3.51a.85.85,0,0,1,0-1.23A.85.85,0,0,1,2.9.26C4.57,1.94,3.68,4,3,5.68c-.86,2-1.32,3.3-.05,4.56a.89.89,0,0,1-.62,1.5A.88.88,0,0,1,1.67,11.47Z"/></g></g></svg>