<svg xmlns="http://www.w3.org/2000/svg" viewBox="0 0 27.21 30.24"><defs><style>.cls-1{fill:#fff;}</style></defs><title>Asset 4</title><g id="Layer_2" data-name="Layer 2"><g id="Layer_1-2" data-name="Layer 1"><path class="cls-1" d="M19.92,15.82v3.12a9.1,9.1,0,0,1-18.19,0V15.82Z"/><path d="M14.71,11.46C12.54,9.3,13.58,6.91,14.4,5s1.08-2.74.31-3.51a.87.87,0,0,1,0-1.23.85.85,0,0,1,1.23,0c1.69,1.68.78,3.76.07,5.42-.87,2-1.34,3.3-.07,4.55a.89.89,0,0,1-.62,1.5A.88.88,0,0,1,14.71,11.46Z"/><path d="M10.38,11.46C8.21,9.3,9.25,6.91,10.07,5s1.08-2.74.31-3.51a.85.85,0,0,1,0-1.23.85.85,0,0,1,1.23,0c1.67,1.68.78,3.76.05,5.42-.86,2-1.32,3.3-.05,4.55a.89.89,0,0,1-.62,1.5A.88.88,0,0,1,10.38,11.46Z"/><path d="M7.26.26C9,1.94,8.06,4,7.33,5.68,6.47,7.68,6,9,7.26,10.23a.89.89,0,0,1-.61,1.5A.9.9,0,0,1,6,11.46C3.87,9.3,4.9,6.91,5.74,5S6.8,2.26,6,1.49A.89.89,0,0,1,6,.26.85.85,0,0,1,7.26.26Z"/><path d="M19.88,24.87c2.27-.21,3.87-.9,4.75-2.08a5,5,0,0,0,.83-3.1,1.81,1.81,0,0,0-1.81-1.8h-2v1.05A10.67,10.67,0,0,1,19.88,24.87ZM5.77,28.5A10.8,10.8,0,0,1,0,18.94V15a.87.87,0,0,1,.87-.87H20.8a.87.87,0,0,1,.86.87v1.18h2a3.56,3.56,0,0,1,3.56,3.55A6.68,6.68,0,0,1,26,23.84c-1.41,1.87-4,2.84-7.65,2.85a10.66,10.66,0,0,1-2.49,1.81H19a.88.88,0,0,1,.87.87.86.86,0,0,1-.87.87H2.68a.86.86,0,0,1-.86-.87.88.88,0,0,1,.86-.87Zm-4-9.56a9.1,9.1,0,0,0,18.19,0V15.82H1.73Z"/></g></g></svg>