<svg xmlns="http://www.w3.org/2000/svg" viewBox="0 0 25.4 35.3"><defs><style>.cls-1{fill:#fff;stroke:#231f20;stroke-linecap:round;stroke-linejoin:round;stroke-width:2px;}.cls-2{fill:#8dd7f7;}.cls-3{fill:#231f20;}</style></defs><title>Asset 12</title><g id="Layer_2" data-name="Layer 2"><g id="Layer_1-2" data-name="Layer 1"><polyline class="cls-1" points="2.68 19.89 1 4.27 24.39 4.27 22.72 19.89"/><path class="cls-1" d="M1.17,3.43l.47-1.09A2.26,2.26,0,0,1,3.72,1h18a2.26,2.26,0,0,1,2.08,1.34l.46,1.09a2.16,2.16,0,0,1-2.07,3H3.25A2.17,2.17,0,0,1,1.17,3.43Z"/><path class="cls-1" d="M22.72,19.89v5.77c0,3.19-4.49,8.64-10,8.64s-10-5.45-10-8.64V19.89Z"/><ellipse class="cls-1" cx="12.7" cy="19.89" rx="10.02" ry="5.78"/><ellipse class="cls-2" cx="12.7" cy="19.89" rx="5.39" ry="3.11"/><ellipse class="cls-3" cx="12.7" cy="3.51" rx="1.4" ry="0.81"/></g></g></svg>