<svg xmlns="http://www.w3.org/2000/svg" viewBox="0 0 27.63 37.51"><defs><style>.cls-1{fill:#fff;}.cls-2{fill:#ffdc6d;}</style></defs><title>Asset 10</title><g id="Layer_2" data-name="Layer 2"><g id="Layer_1-2" data-name="Layer 1"><polygon class="cls-1" points="5.67 4.22 7.38 1.17 11.17 1.17 13.28 1.93 14.96 4.22 17.44 3.42 19.95 3.39 21.84 5.54 21.84 8.34 19.99 9.21 16.53 9.21 14.63 10.64 11.57 10.27 9.39 8.78 2.72 9.29 0.75 8.01 2.14 4.63 5.67 4.22"/><path class="cls-2" d="M20,10.11,21,35a.75.75,0,0,1-.75.75H2.49a.74.74,0,0,1-.75-.71l1.05-25H9.44a5.87,5.87,0,0,0,3.76,1.37A5.79,5.79,0,0,0,17,10.11Z"/><path d="M25.14,13.05h-3.3l.75,17.62h2.55a.75.75,0,0,0,.75-.74V13.79A.75.75,0,0,0,25.14,13.05Zm-7-4.67h2.32A3,3,0,0,0,21,6.7a2.91,2.91,0,0,0-5.32-1.65.88.88,0,0,1-.86.36.86.86,0,0,1-.69-.63,4.07,4.07,0,0,0-7.86,0,.88.88,0,0,1-1.31.52,2,2,0,0,0-1.11-.33A2.07,2.07,0,0,0,2.28,8.4a.65.65,0,0,1,.2,0H8.19a.86.86,0,0,1,.41-.75.88.88,0,0,1,1.2.29,4.1,4.1,0,0,0,6.72.13.87.87,0,0,1,1.21-.24A.85.85,0,0,1,18.09,8.38Zm0-6.34A4.66,4.66,0,0,1,22.71,6.7a4.56,4.56,0,0,1-1,2.89,1.37,1.37,0,0,1,0,.19l.07,1.53h3.37a2.49,2.49,0,0,1,2.49,2.48V29.93a2.49,2.49,0,0,1-2.49,2.48H22.66L22.77,35a2.51,2.51,0,0,1-2.49,2.53H2.49A2.5,2.5,0,0,1,0,35L1.07,9.75V9.67A3.82,3.82,0,0,1,3.82,3.2a3.58,3.58,0,0,1,1.08.16A5.8,5.8,0,0,1,15.24,3,4.65,4.65,0,0,1,18.06,2ZM20,10.11H17a5.79,5.79,0,0,1-3.78,1.37,5.87,5.87,0,0,1-3.76-1.37H2.79l-1,25a.74.74,0,0,0,.75.71H20.28A.75.75,0,0,0,21,35Z"/><path class="cls-1" d="M6.2,16.31s-3.1,12.11,5.56,11.4"/></g></g></svg>