<svg xmlns="http://www.w3.org/2000/svg" viewBox="0 0 15.32 31.67"><defs><style>.cls-1{fill:#1e4597;}.cls-2{fill:#e5e6e6;}</style></defs><title>Asset 7</title><g id="Layer_2" data-name="Layer 2"><g id="Layer_1-2" data-name="Layer 1"><polygon class="cls-1" points="13.58 17.98 13.58 29.93 4.82 29.93 8.31 17.98 13.58 17.98"/><polygon class="cls-2" points="13.58 4.28 13.58 16.24 8.82 16.24 12.31 4.28 13.58 4.28"/><polygon class="cls-1" points="10.5 4.28 7.01 16.24 1.74 16.24 1.74 4.28 10.5 4.28"/><polygon class="cls-2" points="6.5 17.98 3.01 29.93 1.74 29.93 1.74 17.98 6.5 17.98"/><path d="M3,29.93,6.5,18H1.74v12ZM7,16.24l3.49-12H1.74v12ZM13.58,18H8.31l-3.49,12h8.76Zm0-1.73v-12H12.31l-3.49,12ZM15.32,3.41V30.8a.87.87,0,0,1-.87.87H.87A.87.87,0,0,1,0,30.8V3.41a.87.87,0,0,1,.87-.87h2L5.24.24A.87.87,0,1,1,6.44,1.5l-1.08,1h9.09A.87.87,0,0,1,15.32,3.41Z"/></g></g></svg>