<svg xmlns="http://www.w3.org/2000/svg" viewBox="0 0 18.04 50.44"><defs><style>.cls-1{fill:#80213e;}.cls-2{fill:#cd989a;}</style></defs><title>Asset 9</title><g id="Layer_2" data-name="Layer 2"><g id="Layer_1-2" data-name="Layer 1"><polygon class="cls-1" points="16.31 40.46 16.31 48.7 9.02 48.7 1.74 48.7 1.74 40.46 16.31 40.46"/><rect class="cls-2" x="1.74" y="24.16" width="14.56" height="14.56"/><path class="cls-1" d="M16.31,18.68v3.73H1.74V18.68c0-3.72,4.94-5.45,5-5.47h0l.08,0,.07-.05a.18.18,0,0,0,.07,0L7.05,13l0-.06.06-.07a.43.43,0,0,0,0-.07.43.43,0,0,0,0-.07l0-.08,0-.08s0-.05,0-.08,0-.06,0-.09V5.2h3.41v7.22a.19.19,0,0,0,0,.08s0,.06,0,.09a.25.25,0,0,1,0,.07l0,.09,0,.06.05.09,0,0L11,13l.06.05.08,0,.06,0,.09,0h0S16.31,15,16.31,18.68Z"/><rect class="cls-2" x="7.32" y="1.74" width="3.41" height="1.72"/><path d="M1.74,24.16V38.72H16.31V24.16ZM9,48.7h7.29V40.46H1.74V48.7ZM6.45,0H11.6a.87.87,0,0,1,.87.87V11.8C14,12.46,18,14.57,18,18.68V49.57a.86.86,0,0,1-.86.87H.87A.87.87,0,0,1,0,49.57V18.68c0-4.11,4-6.22,5.58-6.88V.87A.87.87,0,0,1,6.45,0Zm4.28,3.46V1.74H7.32V3.46Zm0,8.93V5.2H7.32v7.22s0,.06,0,.09,0,.05,0,.08l0,.08,0,.08a.43.43,0,0,1,0,.07.43.43,0,0,1,0,.07L7.1,13l0,.06L7,13.07a.18.18,0,0,1-.07,0l-.07.05-.08,0h0c-.05,0-5,1.75-5,5.47v3.73H16.31V18.68c0-3.72-4.94-5.45-5-5.47h0l-.09,0-.06,0-.08,0L11,13,10.94,13l0,0-.05-.09,0-.06,0-.09a.25.25,0,0,0,0-.07s0-.06,0-.09a.19.19,0,0,1,0-.08Z"/></g></g></svg>