<svg width="118" height="33" viewBox="0 0 118 33" xmlns="http://www.w3.org/2000/svg" fill="#4f4f4f">
  <path d="M2.7522 4.70352H3.65454C4.08423 4.70352 4.40259 4.5961 4.60962 4.38126C4.81665 4.16641 4.92017 3.88126 4.92017 3.52579C4.92017 3.18204 4.81665 2.91446 4.60962 2.72305C4.40649 2.53165 4.12524 2.43594 3.76587 2.43594C3.44165 2.43594 3.17017 2.52579 2.95142 2.70547C2.73267 2.88126 2.62329 3.11172 2.62329 3.39688H0.929932C0.929932 2.95157 1.04907 2.55313 1.28735 2.20157C1.52954 1.8461 1.86548 1.56876 2.29517 1.36954C2.72876 1.17032 3.20532 1.07071 3.72485 1.07071C4.6272 1.07071 5.33423 1.28751 5.84595 1.7211C6.35767 2.15079 6.61353 2.74454 6.61353 3.50235C6.61353 3.89297 6.49438 4.25235 6.2561 4.58047C6.01782 4.9086 5.70532 5.16055 5.3186 5.33633C5.79907 5.50821 6.15649 5.76602 6.39087 6.10977C6.62915 6.45352 6.74829 6.85977 6.74829 7.32852C6.74829 8.08633 6.47095 8.69376 5.91626 9.15079C5.36548 9.60782 4.63501 9.83633 3.72485 9.83633C2.87329 9.83633 2.17603 9.61172 1.63306 9.16251C1.09399 8.71329 0.824463 8.11954 0.824463 7.38126H2.51782C2.51782 7.70157 2.63696 7.96329 2.87524 8.16641C3.11743 8.36954 3.41431 8.4711 3.76587 8.4711C4.16821 8.4711 4.48267 8.36563 4.70923 8.15469C4.9397 7.93985 5.05493 7.65665 5.05493 7.30508C5.05493 6.45352 4.58618 6.02774 3.64868 6.02774H2.7522V4.70352Z"></path>
  <path d="M8.10181 9.71915V1.1879H10.7268C11.4768 1.1879 12.1467 1.35782 12.7366 1.69766C13.3303 2.0336 13.7932 2.51407 14.1252 3.13907C14.4573 3.76016 14.6233 4.46719 14.6233 5.26016V5.65274C14.6233 6.44571 14.4592 7.15079 14.1311 7.76797C13.8069 8.38516 13.3479 8.86368 12.7542 9.20352C12.1604 9.54337 11.4905 9.71524 10.7444 9.71915H8.10181ZM9.85962 2.61172V8.30704H10.7092C11.3967 8.30704 11.9221 8.08243 12.2854 7.63321C12.6487 7.18399 12.8342 6.54141 12.842 5.70547V5.2543C12.842 4.38712 12.6624 3.73087 12.303 3.28555C11.9436 2.83633 11.4182 2.61172 10.7268 2.61172H9.85962Z"></path>
  <path d="M19.9612 3.3793L19.9905 4.08243C20.4553 3.53555 21.0823 3.26212 21.8713 3.26212C22.7581 3.26212 23.3616 3.60196 23.6819 4.28165C23.8928 3.97696 24.1663 3.73087 24.5022 3.54337C24.842 3.35587 25.2424 3.26212 25.7034 3.26212C27.094 3.26212 27.801 3.99844 27.8245 5.4711V9.71915H26.7405V5.53555C26.7405 5.08243 26.637 4.74454 26.4299 4.52188C26.2229 4.29532 25.8752 4.18204 25.387 4.18204C24.9846 4.18204 24.6506 4.30313 24.385 4.54532C24.1194 4.7836 23.9651 5.10587 23.9221 5.51212V9.71915H22.8323V5.56485C22.8323 4.64297 22.3811 4.18204 21.4788 4.18204C20.7678 4.18204 20.2815 4.48477 20.0198 5.09024V9.71915H18.9358V3.3793H19.9612Z"></path>
  <path d="M33.3792 9.71915C33.3167 9.59415 33.2659 9.37149 33.2268 9.05118C32.7229 9.57462 32.1213 9.83633 31.4221 9.83633C30.7971 9.83633 30.2834 9.66055 29.8811 9.30899C29.4827 8.95352 29.2834 8.5043 29.2834 7.96133C29.2834 7.30118 29.5334 6.78946 30.0334 6.42618C30.5374 6.05899 31.2444 5.8754 32.1545 5.8754H33.2092V5.37735C33.2092 4.99844 33.0959 4.69766 32.8694 4.47501C32.6428 4.24844 32.3088 4.13516 31.8674 4.13516C31.4807 4.13516 31.1565 4.23282 30.8948 4.42813C30.6331 4.62344 30.5022 4.85977 30.5022 5.13712H29.4124C29.4124 4.82071 29.5237 4.51602 29.7463 4.22305C29.9729 3.92618 30.2776 3.6918 30.6604 3.51993C31.0471 3.34805 31.4709 3.26212 31.9319 3.26212C32.6624 3.26212 33.2346 3.44571 33.6487 3.8129C34.0627 4.17618 34.2776 4.67813 34.2932 5.31876V8.23672C34.2932 8.81876 34.3674 9.28165 34.5159 9.6254V9.71915H33.3792ZM31.5803 8.89297C31.9202 8.89297 32.2424 8.80508 32.5471 8.6293C32.8518 8.45352 33.0725 8.22501 33.2092 7.94376V6.64297H32.3596C31.0315 6.64297 30.3674 7.03165 30.3674 7.80899C30.3674 8.14883 30.4807 8.41446 30.7073 8.60587C30.9338 8.79727 31.2249 8.89297 31.5803 8.89297Z"></path>
  <path d="M35.7288 6.49649C35.7288 5.52383 35.9592 4.74258 36.4202 4.15274C36.8811 3.55899 37.4846 3.26212 38.2307 3.26212C38.9729 3.26212 39.5608 3.51602 39.9944 4.02383V0.719147H41.0784V9.71915H40.0823L40.0295 9.03946C39.5959 9.57071 38.9924 9.83633 38.219 9.83633C37.4846 9.83633 36.885 9.53555 36.4202 8.93399C35.9592 8.33243 35.7288 7.54727 35.7288 6.57852V6.49649ZM36.8127 6.61954C36.8127 7.33829 36.9612 7.90079 37.2581 8.30704C37.5549 8.71329 37.9651 8.91641 38.4885 8.91641C39.176 8.91641 39.678 8.60782 39.9944 7.99063V5.07852C39.6702 4.48087 39.1721 4.18204 38.5002 4.18204C37.969 4.18204 37.5549 4.38712 37.2581 4.79727C36.9612 5.20743 36.8127 5.81485 36.8127 6.61954Z"></path>
  <path d="M45.3967 9.83633C44.5374 9.83633 43.8381 9.55508 43.2991 8.99258C42.76 8.42618 42.4905 7.67032 42.4905 6.72501V6.52579C42.4905 5.89688 42.6096 5.33633 42.8479 4.84415C43.0901 4.34805 43.426 3.96133 43.8557 3.68399C44.2893 3.40274 44.7581 3.26212 45.262 3.26212C46.0862 3.26212 46.7268 3.5336 47.1838 4.07657C47.6409 4.61954 47.8694 5.39688 47.8694 6.4086V6.85977H43.5745C43.5901 7.48477 43.7717 7.99063 44.1194 8.37735C44.4709 8.76016 44.9163 8.95157 45.4553 8.95157C45.8381 8.95157 46.1624 8.87344 46.428 8.71719C46.6936 8.56094 46.926 8.35391 47.1252 8.0961L47.7874 8.61172C47.2561 9.42813 46.4592 9.83633 45.3967 9.83633ZM45.262 4.15274C44.8245 4.15274 44.4573 4.3129 44.1604 4.63321C43.8635 4.94962 43.6799 5.39493 43.6096 5.96915H46.7854V5.88712C46.7542 5.33633 46.6057 4.91055 46.3401 4.60977C46.0745 4.30508 45.7151 4.15274 45.262 4.15274Z"></path>
  <path d="M57.719 8.22501L58.9377 3.3793H60.0217L58.176 9.71915H57.2971L55.7561 4.91446L54.2561 9.71915H53.3772L51.5374 3.3793H52.6155L53.8635 8.1254L55.3401 3.3793H56.2131L57.719 8.22501Z"></path>
  <path d="M62.3069 9.71915H61.2229V3.3793H62.3069V9.71915ZM61.135 1.69766C61.135 1.52188 61.1877 1.37344 61.2932 1.25235C61.4026 1.13126 61.5627 1.07071 61.7737 1.07071C61.9846 1.07071 62.1448 1.13126 62.2542 1.25235C62.3635 1.37344 62.4182 1.52188 62.4182 1.69766C62.4182 1.87344 62.3635 2.01993 62.2542 2.13712C62.1448 2.2543 61.9846 2.3129 61.7737 2.3129C61.5627 2.3129 61.4026 2.2543 61.2932 2.13712C61.1877 2.01993 61.135 1.87344 61.135 1.69766Z"></path>
  <path d="M65.5178 1.84415V3.3793H66.7014V4.21719H65.5178V8.14883C65.5178 8.40274 65.5706 8.59415 65.676 8.72305C65.7815 8.84805 65.9612 8.91055 66.2151 8.91055C66.3401 8.91055 66.512 8.88712 66.7307 8.84024V9.71915C66.4456 9.79727 66.1682 9.83633 65.8987 9.83633C65.4143 9.83633 65.0491 9.68985 64.803 9.39688C64.5569 9.10391 64.4338 8.6879 64.4338 8.14883V4.21719H63.2795V3.3793H64.4338V1.84415H65.5178Z"></path>
  <path d="M69.0569 4.14688C69.5374 3.55704 70.1624 3.26212 70.9319 3.26212C72.2717 3.26212 72.9475 4.01797 72.9592 5.52969V9.71915H71.8752V5.52383C71.8713 5.0668 71.7659 4.72891 71.5588 4.51016C71.3557 4.29141 71.0374 4.18204 70.6038 4.18204C70.2522 4.18204 69.9436 4.27579 69.678 4.46329C69.4124 4.65079 69.2053 4.89688 69.0569 5.20157V9.71915H67.9729V0.719147H69.0569V4.14688Z"></path>
  <path d="M109.241 32.719C109.976 32.719 110.711 32.719 111.446 32.719C111.446 30.6451 111.446 28.5712 111.446 26.4973C111.446 26.2731 111.472 26.0787 111.524 25.8936C111.576 25.7086 111.656 25.5313 111.773 25.3435C112.507 24.1727 113.24 23.0019 113.973 21.8311C115.017 20.1616 116.063 18.4926 117.109 16.8229C117.222 16.6414 117.336 16.4598 117.45 16.2783C116.513 16.2783 115.577 16.2783 114.641 16.2783C114.601 16.3422 114.562 16.4061 114.522 16.4699C113.129 18.6938 111.737 20.9185 110.344 23.1448C108.95 20.9185 107.558 18.6937 106.164 16.4683C106.124 16.4049 106.084 16.3416 106.044 16.2783C105.108 16.2783 104.173 16.2783 103.237 16.2783C103.351 16.4599 103.465 16.6414 103.578 16.823C104.245 17.8876 104.912 18.9524 105.579 20.0174C106.245 21.0823 106.912 22.1474 107.578 23.2129C107.807 23.5797 108.036 23.9466 108.266 24.313C108.496 24.6794 108.726 25.0454 108.952 25.4147C108.972 25.4477 108.992 25.4807 109.01 25.5148C109.029 25.549 109.045 25.5843 109.061 25.6198C109.09 25.6862 109.118 25.7534 109.141 25.8223C109.164 25.8912 109.182 25.9618 109.197 26.0332C109.212 26.1094 109.224 26.1865 109.231 26.264C109.238 26.3414 109.241 26.4194 109.241 26.4973C109.241 28.5712 109.241 30.6451 109.241 32.719Z"></path>
  <path fill-rule="evenodd" clip-rule="evenodd" d="M101.111 32.7122H98.5498L98.4608 32.4973C97.833 30.9809 97.2088 29.4631 96.5844 27.9447C96.4445 27.6045 96.3046 27.2643 96.1647 26.9241C95.8392 26.133 95.094 25.6257 94.2578 25.6257H88.8872V32.7122H86.6825V16.2729H95.2676C95.6614 16.2729 96.0559 16.281 96.4472 16.3261C96.65 16.3495 96.852 16.3829 97.0512 16.4288C97.2587 16.4767 97.4632 16.5383 97.6625 16.6144C97.8739 16.6952 98.0796 16.7925 98.2768 16.9052C98.4071 16.9796 98.5336 17.0607 98.6556 17.1486C98.8259 17.2714 98.9872 17.4073 99.1378 17.5548C99.4402 17.8511 99.6991 18.1942 99.9073 18.5666C100.124 18.9544 100.286 19.3739 100.396 19.8068C100.503 20.2265 100.562 20.6588 100.573 21.0925C100.584 21.5252 100.548 21.9593 100.464 22.3834C100.422 22.593 100.368 22.8001 100.303 23.003C100.257 23.1437 100.206 23.2824 100.149 23.4185C100.064 23.6223 99.9652 23.8205 99.8512 24.0088C99.7413 24.1902 99.6171 24.3626 99.4799 24.5232C99.4121 24.6026 99.3411 24.6792 99.2667 24.7521C99.1962 24.8212 99.1227 24.887 99.0466 24.9494C98.9037 25.0666 98.7515 25.1718 98.5934 25.2661C98.4471 25.3534 98.2958 25.4313 98.1418 25.5031C98.652 26.7421 99.1624 27.9814 99.6715 29.2194L101.111 32.7122ZM88.8895 23.1987H95.298C95.6331 23.1987 95.9686 23.1987 96.3027 23.1712C97.584 23.1712 98.0965 22.3384 98.1864 21.2514C98.292 19.9754 97.8762 18.8499 96.4328 18.7383C96.121 18.7057 95.8073 18.699 95.4939 18.699L88.8895 18.6999V23.1987Z"></path>
  <path d="M82.0422 32.7122C82.8199 32.7122 83.5976 32.7122 84.3753 32.7122C82.1302 27.2324 79.885 21.7526 77.6399 16.2729C77.1732 16.2729 76.7066 16.2729 76.2399 16.2729C75.9952 16.2729 75.7505 16.2752 75.5063 16.2908C75.2727 16.3057 75.0395 16.3327 74.8108 16.3834C74.5795 16.4346 74.3528 16.5101 74.1379 16.6119C73.9069 16.7215 73.6895 16.8617 73.4906 17.0252C73.2902 17.1899 73.1086 17.3782 72.9469 17.5828C72.7923 17.7784 72.6557 17.9889 72.5327 18.2071C72.415 18.4158 72.3096 18.6315 72.2114 18.8506C72.1193 19.0562 72.0335 19.2648 71.9477 19.4734C70.1352 23.8863 68.3228 28.2992 66.5103 32.7122C67.3641 32.7122 68.2179 32.7122 69.0716 32.7122C69.1012 32.6403 69.1307 32.5683 69.1603 32.4964C69.9839 30.4916 70.8076 28.4859 71.6322 26.4791C72.4598 24.4569 73.2891 22.436 74.1198 20.4174C74.1377 20.3747 74.1556 20.3319 74.1736 20.2891C74.2236 20.169 74.2736 20.0488 74.3262 19.9299C74.3511 19.8735 74.3767 19.8173 74.4026 19.7614C74.4277 19.7073 74.4532 19.6533 74.4798 19.5999C74.5091 19.5412 74.5397 19.4831 74.5716 19.4259C74.5979 19.3789 74.625 19.3324 74.6537 19.2869C74.6989 19.2152 74.7479 19.1458 74.8024 19.0813L74.8047 19.0786L74.807 19.0759C74.8538 19.0182 74.9097 18.9626 74.9694 18.9164C74.9735 18.913 74.9777 18.9097 74.9818 18.9063C74.9858 18.9027 74.9898 18.8991 74.9938 18.8955C74.9938 18.8955 75.0137 18.8808 75.04 18.8639C75.0729 18.8448 75.0985 18.8322 75.0985 18.8322C75.1024 18.8307 75.1063 18.8292 75.1102 18.8277C75.1139 18.826 75.1177 18.8242 75.1215 18.8225C75.1526 18.8079 75.1766 18.7983 75.212 18.7859C75.245 18.7742 75.2777 18.7657 75.3095 18.7605C75.3164 18.7593 75.3233 18.7582 75.3302 18.757C75.337 18.7551 75.3437 18.7531 75.3504 18.7511C75.3709 18.745 75.4111 18.7376 75.4729 18.73C75.4753 18.7297 75.4777 18.7294 75.4801 18.7291C75.4825 18.7287 75.4848 18.7283 75.4872 18.7279C75.5373 18.7196 75.6027 18.7133 75.666 18.7097C75.7508 18.7063 75.8384 18.7028 75.9211 18.701C75.9718 18.701 76.0225 18.701 76.0732 18.701C77.0865 21.1711 78.0977 23.6418 79.1094 26.1119C79.9818 28.2411 80.8529 30.3687 81.7258 32.4963C81.7553 32.5682 81.7848 32.6402 81.8144 32.7122C81.8903 32.7122 81.9662 32.7122 82.0422 32.7122Z"></path>
  <path d="M59.2107 32.7122H61.4153V18.701H66.9618V16.2729H53.6642V18.701H59.2107V32.7122Z"></path>
  <path d="M45.2598 16.2729C44.7 16.2729 44.1398 16.3103 43.5868 16.4003C43.0861 16.4817 42.5915 16.6062 42.1158 16.7861C41.6729 16.9536 41.2466 17.1693 40.8525 17.4362C40.4704 17.6952 40.1187 18.0024 39.8097 18.3495C39.4951 18.7028 39.2248 19.0976 38.9996 19.5171C38.7598 19.9637 38.5711 20.4385 38.4247 20.9259C38.264 21.461 38.1543 22.0114 38.082 22.5664C38.0013 23.186 37.9673 23.8114 37.966 24.4365C37.9661 24.4529 37.9659 24.4897 37.9659 24.5267C37.9655 25.1189 37.9978 25.7616 38.0765 26.3908C38.147 26.9545 38.2549 27.5073 38.4135 28.0471C38.5576 28.5374 38.7437 29.0171 38.9816 29.4683C39.2037 29.8896 39.4708 30.2861 39.7838 30.6404C40.0901 30.9872 40.4403 31.2936 40.8208 31.5514C41.2147 31.8182 41.6413 32.0329 42.0846 32.1998C42.5619 32.3794 43.0586 32.5037 43.5582 32.5849C43.834 32.6297 44.1106 32.6614 44.3969 32.6824C44.54 32.6929 44.6856 32.7007 44.8141 32.7049C44.9426 32.7092 45.0541 32.7098 45.1606 32.7104C45.7931 32.7136 46.2521 32.7126 46.7363 32.7122C47.2205 32.7118 47.7298 32.712 48.2349 32.7121C49.245 32.7123 50.2377 32.7121 51.2415 32.7122C51.2416 32.5954 51.2414 32.4841 51.2414 32.3023C51.2414 31.8885 51.2423 31.109 51.2445 30.6957C51.2455 30.513 51.2467 30.4019 51.2472 30.284C50.2519 30.2842 49.2295 30.2837 48.2409 30.284C47.2523 30.2843 46.2976 30.2852 45.1438 30.2822C45.0661 30.282 44.9874 30.2817 44.8862 30.2785C44.785 30.2753 44.6613 30.269 44.5411 30.2603C44.3258 30.2447 44.1218 30.2213 43.9177 30.188C43.57 30.1311 43.2221 30.0454 42.8894 29.9198C42.749 29.8667 42.6113 29.8066 42.4768 29.739C42.3452 29.6695 42.2334 29.6023 42.1204 29.5255L42.1185 29.5241L42.1165 29.5229C42.0127 29.4549 41.9116 29.3759 41.8104 29.2854C41.7063 29.1952 41.6183 29.1083 41.5306 29.0103C41.4465 28.9115 41.3563 28.8001 41.2831 28.6889L41.2813 28.6862L41.2794 28.6835C41.1956 28.5627 41.1175 28.4299 41.053 28.3129C40.9037 28.0278 40.7807 27.7139 40.6717 27.3509C40.6165 27.1627 40.5692 26.9659 40.5252 26.7582C40.4795 26.5365 40.442 26.3128 40.4129 26.088C40.3825 25.8444 40.365 25.5883 40.3469 25.3357C40.3325 25.0645 40.3262 24.7669 40.3254 24.5193C40.3253 24.4837 40.3253 24.4492 40.3254 24.4136C40.3262 24.1648 40.3324 23.8653 40.3504 23.6167C40.3625 23.3993 40.3832 23.1658 40.4169 22.8711C40.4764 22.4474 40.5563 22.0259 40.6782 21.6165C40.7763 21.2868 40.9015 20.9649 41.0629 20.6627C41.1317 20.5339 41.207 20.4087 41.2905 20.2896C41.3679 20.1791 41.4523 20.0738 41.5421 19.9736L41.5444 19.9711L41.546 19.9692C41.6305 19.8714 41.7173 19.7838 41.8156 19.7028C41.8156 19.7028 41.8172 19.7014 41.8192 19.6997C41.8209 19.6983 41.8225 19.6968 41.8241 19.6954C41.8961 19.6314 41.9719 19.5719 42.0497 19.5156C42.0918 19.4851 42.1346 19.4555 42.178 19.4268C42.2204 19.3988 42.2634 19.3717 42.307 19.3457C42.3516 19.3191 42.3968 19.2935 42.4426 19.2691C42.4906 19.2435 42.5392 19.2192 42.5883 19.1962C42.6921 19.1473 42.7982 19.104 42.9059 19.0649L42.9105 19.0632L42.9151 19.0614C43.0698 19 43.2288 18.9518 43.3898 18.9106C43.5708 18.8643 43.7544 18.8267 43.9373 18.7972C44.1429 18.7641 44.3476 18.7411 44.5637 18.7253C44.684 18.7165 44.8078 18.71 44.9103 18.7066C45.0127 18.7031 45.0938 18.7029 45.174 18.7026C46.3183 18.6992 47.2738 18.7003 48.2615 18.7006C49.2492 18.7009 50.2691 18.7004 51.2632 18.7006C51.2632 17.8913 51.2632 17.0821 51.2632 16.2729C49.2621 16.2729 47.261 16.2729 45.2598 16.2729Z"></path>
  <path d="M22.6213 32.7122H35.5075V30.2845H24.9811V25.6261H33.6506V23.3571H24.9811V18.701H35.5075V16.2729H22.6213V32.7122Z"></path>
  <path d="M9.41686 32.7122C9.80755 32.7122 10.1982 32.7122 10.5889 32.7122C10.8911 32.7122 11.1934 32.7089 11.4946 32.6809C11.6398 32.6673 11.7848 32.6481 11.928 32.6203C12.0708 32.5926 12.2118 32.5565 12.3498 32.5102C12.6412 32.4125 12.9191 32.2696 13.1708 32.089C13.3031 31.9941 13.4282 31.8887 13.5458 31.7751C13.6633 31.6615 13.7734 31.5397 13.8755 31.4113C13.9719 31.2902 14.0612 31.1633 14.1446 31.0325C14.228 30.9017 14.3053 30.7669 14.3783 30.6296C14.4469 30.5004 14.5115 30.369 14.5726 30.2359C14.6337 30.1029 14.6912 29.9681 14.7481 29.8331C14.9274 29.4076 15.1001 28.9793 15.2745 28.5517C15.4489 28.1241 15.6248 27.6973 15.8004 27.2702C16.1517 26.4161 16.5015 25.5614 16.8521 24.707C17.1237 24.0449 17.3959 23.383 17.6679 22.7211C17.9399 22.0591 18.2117 21.3971 18.4837 20.7351C18.7558 20.0732 19.028 19.4113 19.3002 18.7494C19.5724 18.0876 19.8446 17.4257 20.1168 16.7639C20.1842 16.6002 20.2515 16.4365 20.3188 16.2729C19.4638 16.2729 18.6087 16.2729 17.7536 16.2729C17.7241 16.3448 17.6945 16.4167 17.665 16.4886C16.8428 18.49 16.0209 20.4915 15.2002 22.4936C14.3477 24.5699 13.4952 26.6462 12.6415 28.722C12.5897 28.8478 12.538 28.9736 12.4827 29.0978C12.4371 29.2005 12.389 29.3021 12.3379 29.4022C12.2937 29.4889 12.2472 29.5744 12.1966 29.6573C12.158 29.7205 12.1171 29.7821 12.0727 29.8413C12.0108 29.9237 11.9423 30.0012 11.864 30.0671C11.8235 30.095 11.8001 30.1126 11.8001 30.1126C11.7983 30.1136 11.7965 30.1146 11.7947 30.1156C11.793 30.1165 11.7912 30.1175 11.7894 30.1185C11.7754 30.1266 11.7582 30.1364 11.7405 30.1466C11.7175 30.157 11.6945 30.1675 11.6714 30.1779C11.6444 30.1883 11.6295 30.1945 11.6295 30.1945L11.6249 30.1959L11.6203 30.1973C11.5831 30.2096 11.5486 30.2194 11.5093 30.2287C11.4518 30.2404 11.404 30.2492 11.3508 30.2574C11.285 30.2642 11.2224 30.2699 11.1584 30.273L11.1535 30.2733L11.1485 30.2737C11.029 30.2832 10.8943 30.2846 10.7552 30.2846C8.84046 25.6141 6.92571 20.9435 5.01097 16.2729C4.15728 16.2729 3.30359 16.2729 2.4499 16.2729C2.51691 16.4364 2.58392 16.5999 2.65093 16.7634C4.80001 22.0075 6.9478 27.2503 9.10048 32.4963C9.13001 32.5682 9.15954 32.6402 9.18907 32.7122C9.265 32.7122 9.34093 32.7122 9.41686 32.7122Z"></path>
</svg>